<svg width="128" height="18" fill="none" xmlns="http://www.w3.org/2000/svg"><path d="M7.018 1.424h2.794l1.76 5.17 1.76-5.17h2.816L13.486 8.53l1.98 4.994L19.888 1.38h3.3L16.83 17h-2.552l-2.706-6.556L8.866 17H6.314L0 1.38h3.256L7.7 13.524 9.636 8.53 7.018 1.424zM29.09 17.22c-.924 0-1.76-.154-2.508-.462a5.89 5.89 0 01-1.914-1.298 5.86 5.86 0 01-1.232-1.892 6.212 6.212 0 01-.418-2.266c0-.821.14-1.591.418-2.31a5.526 5.526 0 011.21-1.914 5.723 5.723 0 011.914-1.32c.763-.323 1.614-.484 2.552-.484.939 0 1.775.161 2.508.484a5.641 5.641 0 011.892 1.298A5.305 5.305 0 0134.7 8.948c.279.719.418 1.467.418 2.244 0 .19-.007.374-.022.55 0 .176-.014.323-.044.44h-8.91c.044.455.154.858.33 1.21a2.971 2.971 0 001.628 1.474c.352.132.719.198 1.1.198.587 0 1.137-.14 1.65-.418.528-.293.887-.675 1.078-1.144l2.53.704c-.425.88-1.107 1.606-2.046 2.178-.924.557-2.031.836-3.322.836zm2.992-6.952c-.073-.865-.396-1.555-.968-2.068-.557-.528-1.24-.792-2.046-.792-.396 0-.77.073-1.122.22a2.775 2.775 0 00-.902.572c-.264.25-.484.55-.66.902-.161.352-.256.74-.286 1.166h5.984zM44.13 17.22c-.88 0-1.665-.198-2.354-.594a4.338 4.338 0 01-1.628-1.628V17h-2.574V.94h2.948v6.556c.41-.704.946-1.247 1.606-1.628.675-.396 1.46-.594 2.354-.594.748 0 1.43.161 2.046.484a5.015 5.015 0 011.584 1.298c.455.543.8 1.18 1.034 1.914.25.733.374 1.503.374 2.31 0 .836-.14 1.613-.418 2.332a5.832 5.832 0 01-1.122 1.892 5.402 5.402 0 01-1.716 1.254 4.983 4.983 0 01-2.134.462zm-.814-2.508c.47 0 .902-.088 1.298-.264.396-.19.733-.44 1.012-.748s.491-.667.638-1.078c.161-.41.242-.85.242-1.32 0-.47-.073-.917-.22-1.342-.147-.425-.36-.8-.638-1.122a2.997 2.997 0 00-.946-.77 2.583 2.583 0 00-1.21-.286c-.66 0-1.254.22-1.782.66-.513.425-.91.953-1.188 1.584v2.75c.103.293.25.557.44.792.205.235.433.44.682.616.25.161.52.293.814.396.293.088.58.132.858.132z" fill="#2196F3"/><path d="M67.715 5.472c-.103-.103-.294-.242-.572-.418a5.616 5.616 0 00-.99-.506 7.4 7.4 0 00-1.254-.44 5.524 5.524 0 00-1.386-.176c-.836 0-1.46.154-1.87.462-.411.308-.616.74-.616 1.298 0 .323.073.594.22.814a2.2 2.2 0 00.682.55c.293.161.66.308 1.1.44.454.132.975.271 1.562.418.762.205 1.452.425 2.068.66.63.235 1.158.528 1.584.88.44.352.777.777 1.012 1.276.234.484.352 1.085.352 1.804 0 .836-.162 1.555-.484 2.156a3.867 3.867 0 01-1.276 1.43 5.578 5.578 0 01-1.848.814 9.533 9.533 0 01-2.178.242c-1.174 0-2.332-.176-3.476-.528a10.734 10.734 0 01-3.08-1.496l1.342-2.618c.132.132.366.308.704.528.352.205.762.418 1.232.638.469.205.99.381 1.562.528.572.147 1.158.22 1.76.22 1.672 0 2.508-.535 2.508-1.606 0-.337-.096-.623-.286-.858-.191-.235-.462-.44-.814-.616a7.794 7.794 0 00-1.276-.484 223.85 223.85 0 00-1.672-.484c-.748-.205-1.401-.425-1.958-.66a5.573 5.573 0 01-1.364-.858 3.486 3.486 0 01-.836-1.144c-.176-.44-.264-.96-.264-1.562 0-.792.146-1.496.44-2.112a4.321 4.321 0 011.21-1.54 5.498 5.498 0 011.826-.924c.689-.22 1.43-.33 2.222-.33 1.1 0 2.112.176 3.036.528.924.337 1.73.74 2.42 1.21l-1.342 2.464zm11.339 10.934c-.396.176-.88.352-1.452.528a6.1 6.1 0 01-1.804.264c-.41 0-.8-.051-1.166-.154a2.757 2.757 0 01-.946-.484 2.618 2.618 0 01-.638-.88c-.161-.367-.242-.807-.242-1.32V7.738h-1.518V5.472h1.518v-3.74h2.948v3.74h2.42v2.266h-2.42v5.632c0 .41.103.704.308.88.22.161.484.242.792.242.308 0 .609-.051.902-.154a13.6 13.6 0 00.704-.264l.594 2.332zm5.715.814c-1.188 0-2.09-.381-2.706-1.144-.616-.763-.924-1.892-.924-3.388V5.472h2.948v6.578c0 1.775.638 2.662 1.914 2.662.572 0 1.122-.169 1.65-.506.543-.352.983-.88 1.32-1.584v-7.15h2.948v8.14c0 .308.052.528.154.66.118.132.3.205.55.22V17a6.156 6.156 0 01-1.276.132c-.528 0-.96-.117-1.298-.352a1.482 1.482 0 01-.572-1.012l-.066-.924a4.914 4.914 0 01-1.98 1.782c-.806.396-1.694.594-2.662.594zm15.514 0a5.234 5.234 0 01-2.2-.462 5.187 5.187 0 01-1.738-1.276A6.155 6.155 0 0195.2 13.59a6.897 6.897 0 01-.396-2.354c0-.836.124-1.613.374-2.332a6.297 6.297 0 011.078-1.892 4.917 4.917 0 011.628-1.276 4.648 4.648 0 012.068-.462c.851 0 1.613.205 2.288.616.689.41 1.225.946 1.606 1.606V.94h2.948v12.672c0 .308.051.528.154.66.103.132.279.205.528.22V17c-.513.103-.931.154-1.254.154-.528 0-.961-.132-1.298-.396a1.454 1.454 0 01-.572-1.034l-.066-.726a4.237 4.237 0 01-1.738 1.672 4.922 4.922 0 01-2.266.55zm.77-2.508c.279 0 .565-.044.858-.132a3.288 3.288 0 001.474-1.034c.205-.235.359-.491.462-.77v-2.75a2.92 2.92 0 00-.506-.88 2.994 2.994 0 00-.726-.704 3.31 3.31 0 00-.858-.484 2.354 2.354 0 00-.88-.176c-.44 0-.851.095-1.232.286-.367.19-.682.455-.946.792-.264.323-.47.697-.616 1.122a4.02 4.02 0 00-.22 1.32c0 .484.08.931.242 1.342.161.41.381.77.66 1.078.278.308.609.55.99.726.396.176.829.264 1.298.264zM110.349 17V5.472h2.948V17h-2.948zm0-13.134V.94h2.948v2.926h-2.948zM121.94 17.22c-.939 0-1.782-.161-2.53-.484a5.89 5.89 0 01-1.914-1.298 6.01 6.01 0 01-1.188-1.914 6.206 6.206 0 01-.418-2.266c0-.807.139-1.57.418-2.288a5.756 5.756 0 011.188-1.892 5.723 5.723 0 011.914-1.32c.748-.323 1.591-.484 2.53-.484.939 0 1.775.161 2.508.484a5.486 5.486 0 011.892 1.32 5.577 5.577 0 011.21 1.892c.279.719.418 1.481.418 2.288 0 .792-.139 1.547-.418 2.266a6.01 6.01 0 01-1.188 1.914 5.638 5.638 0 01-1.892 1.298c-.748.323-1.591.484-2.53.484zm-3.014-5.962c0 .513.073.983.22 1.408.161.41.374.77.638 1.078.279.308.601.55.968.726a2.92 2.92 0 001.188.242c.425 0 .821-.08 1.188-.242.367-.176.682-.418.946-.726.279-.308.491-.675.638-1.1.161-.425.242-.895.242-1.408 0-.499-.081-.96-.242-1.386a3.146 3.146 0 00-.638-1.1 2.62 2.62 0 00-.946-.704 2.712 2.712 0 00-1.188-.264c-.425 0-.821.088-1.188.264a3.11 3.11 0 00-.968.726 3.668 3.668 0 00-.638 1.1c-.147.425-.22.887-.22 1.386z" fill="#fff"/></svg>